<svg version="1.2" xmlns="http://www.w3.org/2000/svg" viewBox="0 0 1623 516" width="1623" height="516">
	<title>KD_BIG</title>
	<style>
		.s0 { fill: #ffffff } 
	</style>
	<path id="Kyndryl_logo_TM" fill-rule="evenodd" class="s0" d="m1548.6 0v387h-45.4v-387zm-824.9 222.7v164.3h-45.4v-158.4c0-43.6-19.9-65.6-64.3-65.6-38.8 0-61.9 19.9-61.9 63.3v160.7h-45.5v-258h45.5v58.4h2.2c1-9.1 3.6-18 7.9-26.2 4.3-8.1 10.2-15.3 17.2-21.3 7-5.9 15.1-10.5 23.9-13.4 8.7-2.9 18-4.1 27.2-3.5 58.3 0 93.1 38.1 93.2 99.7zm-292.6-93.7h47.1l-125 387h-45.3l42.5-129h-41.7l-83.5-258h47.1l78.8 251.1h1.5zm996.5 0h47l-125 387h-45.3l42.6-129h-41.7l-83.5-258h47.1l78.8 251h1.5zm-1289.5 129l90.3 129h-52.6l-87.3-126.6h-43.1v126.6h-45.4v-387h45.4v253.5h1.4l104.6-124.5h55.2l-112.1 129zm983.1-96c3.9-7.9 9.3-15.1 15.8-21 6.6-6 14.3-10.6 22.6-13.7 8.3-3.1 17.1-4.6 26-4.3q2.7-0.1 5.5 0 2.7 0.1 5.4 0.4 2.7 0.4 5.4 0.9 2.6 0.6 5.2 1.4v43.9q-3.4-0.8-6.9-1.4-3.5-0.6-7-1-3.6-0.4-7.1-0.5-3.6-0.2-7.1-0.2c-42.2 0-66.9 15.9-66.9 59.4v161.1h-45.4v-258h45.4v58.5h2.2c0.7-8.9 3-17.5 6.9-25.5zm-158.3-162h45.4v387h-45.4v-58.4h-2.1c-4.4 36-32 64.4-84.4 64.4-63.9 0-109.3-50.7-109.3-135 0-84.3 45.4-135 109.3-135 52.4 0 80 28.4 84.4 64.5h2.1zm0 223.9c0-43.5-32.8-61-73.4-61-42.9 0-75 26.7-75 95.1 0 68.3 32.1 95 75 95 40.6 0 73.4-17.5 73.4-61zm626.4 135.9v3h-8.3v24.2h-3.8v-24.2h-8.3v-3zm32.5 0l0.9 27.2h-3.9l-0.8-26.9-7.1 26.9h-6.9l-6.7-26.9-0.8 26.9h-3.7l0.8-27.3h7.5l6.4 26.9h0.1l6.8-26.9c0 0.1 7.4 0.1 7.4 0.1z"/>
</svg>