<svg version="1.2" xmlns="http://www.w3.org/2000/svg" viewBox="0 0 1533 488" width="1533" height="488">
	<title>Marriott_International-svg</title>
	<style>
		.s0 { fill: #ffffff } 
	</style>
	<path id="Layer" fill-rule="evenodd" class="s0" d="m272.8 486.5v-79.2h17.3v79.2c0 0-17.3 0-17.3 0zm106.2 0l-38.4-50.3v50.4h-17.1v-79.3h16l37 48.8v-48.8h17.2v79.2c0 0-14.7 0-14.7 0zm77.2-63.1v63.1h-17.4v-63.1h-24v-16.1h65.4v16.1zm45.1 63.1v-79.2h59.6v15.5h-42.4v15.8h37.3v15.5h-37.3v16.9h42.9v15.5zm136.9 0l-17-25.3h-13.7v25.3h-17.3v-79.2h36c18.6 0 29.8 9.9 29.8 26.2v0.2c0.5 11.1-6.4 21.1-16.9 24.5l19.3 28.3zm0.3-52.1c0-7.6-5.2-11.4-13.6-11.4h-17.3v22.8h17.5c8.5 0 13.4-4.5 13.4-11.2zm101.6 52.1l-38.3-50.3v50.3h-17.1v-79.2h16l37 48.8v-48.8h17.2v79.2c0 0-14.8 0-14.8 0zm101.4 0l-7.2-17.7h-33.5l-7.2 17.7h-17.7l33.9-79.7h16l33.8 79.7zm-24-58.8l-10.4 25.7h20.9zm87.7-4.3v63.1h-17.4v-63.1h-24v-16.1h65.5v16.1zm46.9 63.1v-79.2h17.4v79.2zm86.5 1.4c-24.4 0-41.9-18.3-41.9-40.8v-0.2c0-22.6 17.7-41 42.1-41 24.4 0 41.9 18.2 41.9 40.8v0.2c0 22.5-17.7 41-42.1 41zm23.9-41c0.5-13.2-9.9-24.4-23.2-24.8q-0.3-0.1-0.7-0.1c-14 0-23.7 11.1-23.7 24.7v0.2c-0.5 13.3 9.9 24.5 23.2 24.9q0.3 0 0.7 0c14 0 23.7-11.1 23.7-24.6zm102 39.5l-38.2-50.3v50.3h-17.1v-79.1h16l37 48.7v-48.7h17.2v79.1c0 0-14.9 0-14.9 0zm101.5 0l-7.2-17.7h-33.4l-7.2 17.7h-17.7l33.8-79.7h16.1l33.8 79.7zm-23.8-58.8l-10.4 25.7h20.9zm61.7 58.9v-79.3h17.4v63.4h39.4v15.8z"/>
	<path id="Layer" fill-rule="evenodd" class="s0" d="m818.4 154.4c-9.3-4.8-19.5-7.5-29.9-7.8-20.8 0-32.5 15.1-35.6 20.1v161.4h-63.1v-226.3h57.8l3.6 23.7c2.5-4.1 17.5-28.5 47.3-28.5 6.8 0.1 13.5 1.2 19.9 3.4 0 0 0 54 0 54zm149.6 0c-9.3-4.8-19.5-7.5-29.9-7.8-20.8 0-32.4 14.9-35.6 20.1v161.5h-63.1v-226.4h57.8l3.6 23.7c2.6-4.1 17.5-28.5 47.3-28.5 6.8 0.1 13.5 1.2 19.9 3.4zm-316.8 12.4v161.3h-57.8l-3.7-23.6c-3.9 3.9-22.5 28.5-60.7 28.5-36.1 0-61-27.6-61-64.8 0-80.1 94.2-91.3 120.2-94v-6.4c0-13.1-11-26.7-40.1-26.7-30.7 0-54.4 17-58.7 20.1v-46.7c24.6-11.8 51.6-17.8 78.8-17.6 58 0 83 26.5 83 69.9zm-63 51.7c-20.1 0-56.7 6.9-56.7 38.5 0 16.1 11 27.7 24.8 27.7 17.8 0 31.9-12.9 31.9-41.8zm-274-217.5l152 327.3h-87.6l-60.2-129.4-22.2 47.7 38 81.6h-87.7l-60.1-129.4-33.1 71.1c-26.8 57.7-57.6 85-99.7 85-18.4-0.3-36.6-4.1-53.6-11.2l33.6-72.1c9.2 3.3 18.8 5.1 28.6 5.3 35.5 0 55.5-15.5 81.4-71 11.5-24.6 18.7-40.1 23.1-49.5l-56.6-121.8 72-33.6 94.5 203.3 22.3-47.7-56.7-121.9zm1218.6 100.9v39.3h-31.9v187h-63.1v-187h-20.2v-39.3h20.2v-45.4l63-29.5v74.9zm-541.2 0h63v226.3h-63zm375.4 0h32v39.4h-32v186.9h-63.1v-186.9h-20.2v-39.4h20.2v-45.4l63.1-29.5zm-98 131.8c0 53.9-26.3 99.5-90.9 99.5-64.6 0-90.9-45.2-90.9-99.5v-37.2c0-54.2 26.3-99.5 90.9-99.5 64.6 0 90.9 45.6 90.9 99.5zm-63.5-46.2c0-27-6.6-46.3-27.4-46.3-20.8 0-27.4 19.3-27.4 46.3v55.2c0 27.1 6.5 46.3 27.4 46.3 20.9 0 27.4-19.2 27.4-46.3z"/>
</svg>