<svg version="1.2" xmlns="http://www.w3.org/2000/svg" viewBox="0 0 1552 364" width="1552" height="364">
	<title>PERSISTENT</title>
	<style>
		.s0 { fill: #ffffff } 
		.s1 { fill: #ff5700 } 
	</style>
	<g id="Logo-Elements_Persistent_Logo_Wordmark">
		<path id="Persistent" fill-rule="evenodd" class="s0" d="m840.1 142.7q0 0-0.1 0 0 0 0 0zm51.3 30l-31.2 16.5c-3.9-9.7-12.6-15.9-20.4-15.9-7.1 0-12.1 3.6-12.1 8.9 0 4.7 3.7 8.1 10.8 9.9l16.2 4.2c24.4 6.2 37.5 19.9 37.5 38.2 0 25.9-22 44.2-52.1 44.2-25.7 0-46.1-11.8-54.8-31.7l30.9-17c4.7 10.8 14.4 17.6 24.1 17.6 8.1 0 13.6-3.7 13.6-10 0-4.4-3.9-7.8-11.8-9.6l-15.1-3.7c-24.4-5.8-37-19.4-37-39.8 0-24.6 20.5-41.8 50-41.8 22.3 0 43.2 12 51.4 30zm126.9-30c22.2 0 43.2 12 51.3 30.1l-31.2 16.4c-3.9-9.6-12.5-15.9-20.4-15.9-7.1 0-12 3.7-12 8.9 0 4.7 3.6 8.1 10.7 9.9l16.2 4.2c24.4 6.3 37.5 19.9 37.5 38.2 0 25.9-22 44.2-52.1 44.2-25.7 0-46.1-11.8-54.8-31.6l31-17c4.7 10.7 14.4 17.5 24 17.5 8.2 0 13.7-3.7 13.7-9.9 0-4.5-4-7.9-11.8-9.7l-15.2-3.7c-24.4-5.7-36.9-19.3-36.9-39.7 0-24.6 20.4-41.9 50-41.9zm-403.9 0c39 0 66 28.5 66 69.1 0 4.4-0.3 7.8-0.5 9.4h-95.1c1.3 15.1 15.2 26.1 31.2 26.1 14.1 0 21.7-6 27.7-15.7l32.2 12.8c-10.7 21.2-31.7 34.3-60 34.3-40.3 0-68.6-28-68.6-68 0-39 28.8-68 67-68zm627.9 0c39.1 0 66 28.5 66 69.1 0 4.4-0.2 7.8-0.5 9.4h-95.1c1.3 15.1 15.2 26.1 31.2 26.1 14.2 0 21.7-6 27.7-15.7l32.3 12.8c-10.8 21.2-31.7 34.3-60 34.3-40.4 0-68.6-28-68.6-68 0-39 28.8-68 67-68zm-108.2-34.5v37.9h32.7v31.4h-32.7v47.3c0 13.9 6 19.4 18.6 19.4 4.7 0 9.9-1.3 14.1-3.9v32.9c-5.7 2.9-14.4 5.3-26.7 5.3-27.3 0-44-16.8-44-45.5v-55.5h-18.4v-31.4h18.4v-37.9zm384.7 0v37.9h32.7v31.4h-32.7v47.3c0 13.9 6 19.4 18.6 19.4 4.7 0 9.9-1.3 14.1-3.9v32.9c-5.8 2.9-14.4 5.3-26.7 5.3-27.3 0-44-16.8-44-45.5v-55.5h-18.4v-31.4h18.4v-37.9zm-1043.2-15.9c39.8 0 67.3 21.4 67.3 59.1 0 37.4-27.5 59.1-67.3 59.1h-23.1v64.8h-39.3v-183zm298.3 51c2.9 0 5.8 0.5 6.6 0.8v39.2c-2.1-1.1-5.8-1.6-9.7-1.6-21.2 0-33.8 15.7-33.8 41.1v52.5h-38v-129.1h37.7v21.1c6.8-14.9 20.4-24 37.2-24zm174.3 2.9v129.1h-38.2v-129.1zm455.2-3.5c29.6 0 47.7 20.2 47.7 52.9v79.7h-38.3v-70.8c0-17-8.4-26.7-23.3-26.7-14.7 0-24.4 11-24.4 29v68.5h-38.2v-129.1h38.2v16.4c7.9-12.5 21-19.9 38.3-19.9zm-789.3 29.9c-15.1 0-27.5 11.5-29.1 23.7h57.9c-1.5-13.8-13.3-23.7-28.8-23.7zm627.9 0c-15.1 0-27.5 11.5-29 23.7h57.8c-1.5-13.8-13.3-23.7-28.8-23.7zm-765.7-45h-23.8v48.1h23.8c15.7 0 27-8.9 27-24.1 0-15.1-11.3-24.1-27-24zm452.8 3.4c-12.3 0-22.3-9.9-22.3-22.2 0-12.3 10-22.3 22.3-22.3 12.3 0 22.2 10 22.2 22.3 0 12.3-9.9 22.2-22.2 22.2z"/>
	</g>
	<g id="Logo-Elements_Persistent_Logo_Infinity">
		<path id="Swoosh" fill-rule="evenodd" class="s1" d="m335.2 61.3c-3.8-11.7-10-22.6-18.1-31.7-8.1-9-18-16.3-28.9-21.2-21.7-9.9-47.2-9.9-68.7 0-21.6 9.7-38.7 28.9-46.4 51.6q-0.7 2.2-1.3 4.3-0.6 2.2-1.2 4.4-0.5 2.2-0.9 4.4-0.4 2.2-0.7 4.4c-0.8 5.9-0.8 12.1-0.7 17.7l0.3 34 0.6 68 0.2 34c0 5.7-0.1 11.3 0 17 0 2.8 0.1 5.7 0.1 8.4 0.1 2.8-0.1 5.5-0.2 8.2-0.3 5.5-0.9 11-2.1 16.4-1.1 5.4-2.8 10.7-5.1 15.8-4.6 10.1-11 19.5-19.1 27.1-16.3 15.1-38.6 23.3-60.5 21.4q-4.1-0.2-8.2-1-4-0.7-8-1.8-3.9-1.2-7.7-2.8-3.9-1.5-7.5-3.5c-9.7-5.3-18.2-12.7-25-21.6-3.4-4.4-6.5-9.2-9-14.2-2.6-5-4.8-10.2-6.3-15.6-3.2-10.8-4-22.3-2.5-33.2 0.8-5.5 2.1-10.9 3.8-16.1 1.7-5.2 3.9-10.2 6.4-14.9 2.5-4.7 5.5-9 8.7-13q1.2-1.5 2.4-2.9 1.3-1.5 2.6-2.8 1.3-1.4 2.8-2.6 1.4-1.3 2.8-2.5c15.3-12.8 35.5-18.2 56.2-18.3 21.3 0 42.7 0.3 64.1 0.2l-0.1-23.2c-21.3 0.4-42.6 1.9-63.9 3.5-11.9 0.9-23.6 3.9-34.6 8.6-5.6 2.4-10.8 5.4-15.8 8.7-4.9 3.3-9.6 7-13.8 11.2-4.3 4.1-8 8.8-11.3 13.7q-1.3 1.8-2.5 3.7-1.1 1.9-2.2 3.8-1.1 2-2.1 4-1 1.9-1.9 4c-4.9 10.8-8.1 22.3-9.3 34.3-1.2 12.1-0.5 24.5 2.3 36.5 2.8 12 7.7 23.6 14.8 34.1 7 10.5 16.1 19.9 27.1 27.1 10.9 7.1 23.5 11.9 36.5 13.9 1.6 0.3 3.2 0.4 4.9 0.6 1.6 0.2 3.2 0.3 4.9 0.4 1.7 0.1 3.4 0.2 5.1 0.1 1.7 0 3.4 0 5.1-0.1 6.8-0.4 13.5-1.6 20-3.5 6.5-1.9 12.9-4.4 19-7.6 6.1-3.2 11.8-7.1 17.2-11.5 10.6-8.9 19.4-20.3 25.9-32.9q1.2-2.3 2.3-4.8 1.1-2.4 2.1-5c1.3-3.2 2.4-6.7 3.3-10.1 1.8-6.9 3-13.9 3.8-20.9 0.2-3.5 0.6-7.1 0.7-10.6l0.2-4.5 0.2-4.3 0.8-17 0.7-34 1.4-68 0.7-34 0.1-4.2v-1.1-0.7l0.1-1.4q0.2-2.8 0.6-5.6c0.6-3.7 1.5-7.4 2.8-10.8 2.5-7.1 6.5-13.4 11.4-19 4.9-5.5 11-9.9 17.6-12.9 6.7-3 13.9-4.5 21.2-4.5 7.4-0.2 14.7 1.3 21.5 4.3 6.8 2.9 13.1 7.3 18.2 12.9 5.2 5.7 9.4 12.3 12 19.6 2.7 7.3 3.9 15.3 3.5 23.3-0.4 8-2.3 15.9-5.8 23.2-3.5 7.2-8.4 13.9-14.5 19.1q-2.3 1.9-4.8 3.7-2.5 1.7-5.1 3.1-2.7 1.4-5.5 2.6-2.8 1.1-5.6 2c-3.9 1.1-7.9 1.9-11.9 2.2l-1.5 0.1c-0.6 0-0.9 0.1-1.7 0.1l-4.1 0.1-8.2 0.3-30.6 0.8-0.6 26.7 31.2 0.4 8.2 0.2h4.1 4.4c5.9-0.2 11.9-1 17.6-2.5 11.6-2.7 22.7-8.2 32.2-15.7 9.5-7.5 17.3-17.3 23.1-28.2 11.4-21.8 13.6-48.5 5.7-71.9z"/>
	</g>
</svg>