<svg version="1.2" xmlns="http://www.w3.org/2000/svg" viewBox="0 0 1573 338" width="1573" height="338">
	<title>thermo-fisher-scientific-svg</title>
	<style>
		.s0 { fill: #ee3134 } 
		.s1 { fill: #ffffff } 
	</style>
	<g id="Layer">
		<path id="Layer" fill-rule="evenodd" class="s0" d="m99.6 33.9v147.1h-47v-146.7h-52v-33.9h151.4v33.5zm588.6 146.2v-76.8c0-12-3.3-24.4-16.9-24.4-20.2 0-18.6 21.5-18.6 25.6v75.6h-44.1v-76.8c0-12-3.3-24.4-16.9-24.4-20.2 0-18.6 21.5-18.6 25.6v76h-44.5v-125.5h42.9l0.8 18.6c8.3-15.7 23.1-21.5 40.4-21.5 14.5 0 29.7 7.4 35.1 21.5 8.7-14.1 23.9-21.9 41.7-22.4 24.3 0 42.9 15.7 42.9 40.9v60.8c0 6.6 0.8 15.7 2 27.6zm-178.6-88.8c-24.3 0.4-30.5 13.2-30.5 33.9v54.9h-44.6v-93.3c0-8.3 0-21.9-0.8-32.2h44.6l0.8 23.9c5.8-19 20.2-25.6 39.6-25.2v38.4c-3.3-0.4-6.2-0.4-9.1-0.4zm369.2 26.1c0 44.2-26.8 66.5-67.6 66.5-40.9 0-67.7-21.9-67.7-66.5 0-43.4 26.8-66.1 67.7-66.1 40.4 0 67.2 22.7 67.6 66.1zm-89.9-0.9c0 22.7 4.1 40.9 22.3 40.9 18.1 0 22.2-17.7 22.2-40.9 0-19.4-3.7-38.8-22.2-38.8-19-0.4-22.3 19-22.3 38.8zm-546.6 63.6v-76.8c0-12-2.9-24.4-16.9-24.4-20.2 0-18.6 21.5-18.6 25.6v76.1h-44.5v-180.2h43.7v67.8c5-6.2 10.3-9.9 16.1-12.8 6.2-2.9 13.6-4.1 21-4.1 24.8 0 43.3 15.7 43.3 40.9v60.7c0 7 0.5 15.7 1.7 27.7zm181.5-53.3h-84.2c-0.4 15.7 3.4 31.8 20.3 31.8 13.2 0 19.8-7.9 21-19.4h41.3c-1.3 15.7-9.9 26.8-21.1 34.2-9.9 7.1-23.5 10.4-38.8 10.4-48.6 0-65.6-22.7-65.6-69.8 0-38.5 24-62.8 63.6-62.8 50.3 0 63.9 29.7 63.5 74.7zm-47.4-43.7c-3.3-5.4-8.3-9.1-15.7-8.7-16.5 0.8-19.8 14.4-20.6 27.7h41.2c0-6.7-1.2-13.7-4.9-19z"/>
		<path id="Layer" fill-rule="evenodd" class="s0" d="m1563.1 88.8c-24.3 0.9-30.5 15.7-30.5 36.4v54.5h-44.5v-93.3c0-8.3 0-21.9-0.8-32.3h44.5l0.8 21.9c5.8-19 20.2-25.6 39.6-25.2v38.5c-3.3 0-6.2 0-9.1-0.5zm-268.1 91.3v-76.8c0-12-2.9-24.4-16.9-24.4-20.2 0-18.5 21.5-18.5 25.6v76h-44.6v-180.1h44.6v67.8c4.9-6.2 10.7-9.9 16.5-12.8 6.6-2.9 13.2-4.2 20.6-4.2 24.7 0 43.3 15.7 43.3 40.9v60.8c0 7 0.4 15.7 1.6 27.6zm-147.2 3.8c-31 0-58.6-6.6-57.8-44.2h42.5c-0.4 4.5 0.4 9 2.9 12.4 2.5 3.7 6.6 6.2 11.6 6.2 8.6 0 15.2-3.8 15.2-12 0-23.2-70.9-12-70.9-55.8 0-30.2 31.3-38.8 55.7-38.8 28.4 0 54.4 8.6 55.2 41.7h-42c0-5.4-1.3-9.5-3.4-12-2.4-2.5-6.1-4.1-11.9-4.1-7.4 0-11.6 4.1-11.6 11.6 0 9.9 19.8 10.3 46.7 19.8 14 5.3 24.3 14.9 24.3 34.3 0 30.5-27.6 40.9-56.5 40.9zm329.6-57.9v0.9h-85c-0.4 15.7 3.3 31.8 20.2 31.8 13.2 0 19.8-7.9 21-19.5h41.7c-1.2 15.7-9.9 26.9-21 34.3-9.9 7.1-23.6 10.4-38.8 10.4-49.1 0-65.6-22.8-65.6-69.9 0-38.4 23.9-62.7 63.5-62.7 50.3 0 64 29.7 63.6 74.7zm-47.1-42.9c-3.3-5.4-8.2-9.1-15.7-8.7-16.5 0.8-19.8 14.5-20.6 27.7h41.3c0-6.6-1.7-13.7-5-19zm-395.6 97v-125.5h44.6v126zm-75.5-147.1v43.4h48.3l-10.3 33h-38v70.7h-47v-180.2h119.2l-10.3 33.1zm76.3 0l10.7-33.1h43.7l-10.7 33.1z"/>
		<path id="Layer" fill-rule="evenodd" class="s1" d="m407.3 233.4h16.1v102.1h-16.1zm1094.8 103.2c-33.8 0-59.4-19-59.4-52 0-33.5 28.5-54.1 60.6-54.1 11.6 0 24 3.7 32.2 9.1l-8.2 9.9c-7-4.2-14.9-6.6-23.5-6.6-12.4 0-24.4 3.7-32.2 12.4-6.6 7.4-10.3 16.5-10.3 29.7 0 14.5 4.5 22.3 11.9 29.7 7.9 7.9 19.8 10 31.4 10 9.5 0 18.5-3.4 26-7.5l7.8 9.5c-8.7 5.8-22.7 9.9-36.3 9.9zm-170.8-103.2h16.1v102h-16.1zm-367.9 12h-38v90h-15.7v-90h-37.9v-12.4h93.6zm-846.8 85.9c-7.9 3.7-17.4 5.8-28.9 5.8-14.4 0-29.3-3.3-41.3-9.1l6.6-11.6c12 5.8 23.1 8.7 35.5 8.7 8.3 0 13.6-1.2 18.6-4.1 5.8-3.3 9.1-7.5 9.1-13.2 0-8.7-6.6-14.1-22.3-17.4l-16.5-3.7c-16.5-3.7-26.8-14.1-26.8-26.5 0-17.3 16.9-29.7 41.6-29.7 14.5 0 29.3 3.7 39.2 9.9l-7.4 10.8c-9.9-5.4-20.2-8.3-30.9-8.3-14.5 0-24.8 5.8-24.8 15.3 0 7.4 6.2 12 20.2 15.3l15.3 3.7c8.6 2.1 17.7 5.8 22.7 10.3 4.9 4.6 7.8 11.6 7.8 18.2 0.4 10.3-6.2 20.2-17.7 25.6zm653 3.7l-40.5-54.5c-7.4-10.3-20.6-30.2-20.6-30.2 0 0 1.2 17.4 1.7 32.3l0.4 52.4h-16.1v-101.6h19.4l40.8 55.8c7.8 10.7 19 28.1 19 28.1 0 0-2.5-19-2.5-32.3l-0.4-51.2h16.1v102zm279.2-101.6h16.1v102.1h-16.1zm193.5 11.9h-56.1v30.2h47.4v12h-47.4v47.9h-16.1v-102h74.3zm-713.2-12h75.4l-2 12.4h-56.9v30.5h48.2v12.4h-48.2v34.7h60.6v12.4h-77.1zm-247.5 103.3c-33.9 0-59.4-19-59.4-52 0-33.5 28.4-54.2 60.6-54.2 11.5 0 23.9 3.8 32.2 9.1l-8.3 9.9c-7-4.1-14.8-6.6-23.5-6.6-12.4 0-24.3 3.7-32.6 12.4-6.6 7.5-10.3 16.5-10.3 29.8 0 14.4 4.5 22.3 12 29.7 7.8 7.9 19.8 9.9 31.3 9.9 9.5 0 18.6-3.3 26-7.4l7.8 9.5c-8.2 5.8-22.2 9.9-35.8 9.9z"/>
	</g>
</svg>