<svg xmlns="http://www.w3.org/2000/svg" height="800" width="1200" viewBox="-44.95245 -70.6225 389.5879 423.735"><g fill="#ffffff"><path d="M149.197 0L108.29 111.125S80.513 34.36 73.947 17.187C67.38.015 57.289 4.031 32.54 4.031H4.76V22.72h39.905c30.81 0 27.764 7.601 38.875 37.906a58466.868 58466.868 0 0023.75 64.625l41.407-112.125 41.937 112.125s18.67-46.956 28.771-76.25c10.102-29.295 21.214-26.281 44.448-26.281h28.281V3.53H253.76c-28.284 0-26.283 3.528-35.375 28.782-9.091 25.253-29.281 78.812-29.281 78.812z"/><path d="M148.697 28.281l-42.438 110.625s-24.731-63.64-32.812-83.844c-8.081-20.203-9.6-22.75-30.813-22.75-20.262 0-36.388-.427-37.875-.468V51.53h38.375c25.254 0 24.748 5.54 37.375 38.875 12.627 33.335 24.75 62.625 24.75 62.625l43.438-110.094 43.937 110.094s30.308-70.691 33.844-85.844c3.536-15.152 14.136-15.656 34.844-15.656h31.843V32.313h-44.468c-21.719 0-20.716 11.137-30.313 37.906-9.596 26.769-26.75 68.187-26.75 68.187z"/><path d="M4.753 79.298V60.105h28.284c17.678 0 26.769-4.04 39.396 26.264 12.627 30.305 31.315 79.297 31.315 79.297L149.204 57.58l43.942 108.591s22.223-52.528 31.315-74.751c9.091-22.224 8.081-32.325 32.83-32.325h35.86v20.708h-31.82c-17.677 0-25.759-2.525-36.365 26.77-10.607 29.294-30.305 74.245-30.305 74.245L148.7 70.712l-44.951 110.106s-20.204-49.497-29.295-71.72c-9.091-22.224-12.122-29.8-32.325-29.8H4.753z"/><path d="M101.222 207.587s-19.193-44.446-29.294-67.68c-10.102-23.233-12.627-32.325-31.315-32.325H4.753V87.38h26.264c21.213 0 25.257.265 34.347 19.83 9.09 19.566 36.363 85.731 36.363 85.731L149.204 85.36l45.962 107.581s22.729-51.013 32.83-74.246c10.102-23.234 10.102-30.81 29.295-30.81h35.86v20.203h-26.769c-17.173 0-28.284-1.515-35.86 19.193-7.576 20.708-34.346 80.812-34.346 80.812L148.7 98.996z"/><path d="M99.202 236.377s-23.739-51.013-33.335-72.731c-9.597-21.719-8.586-28.285-21.213-28.285H4.753V116.17H29.5c17.173 0 21.719-3.536 32.83 21.718 11.112 25.254 37.881 83.337 37.881 83.337l48.487-107.58 47.983 107.075s27.779-57.073 36.87-76.771c9.091-19.698 6.566-27.78 31.82-27.78h28.284v19.699h-29.294c-16.163 0-19.698-2.02-25.76 13.637-6.06 15.657-40.405 86.873-40.405 86.873L148.194 127.28z"/><text y="149.265" x="243.899" style="line-height:0%;-inkscape-font-specification:'DejaVu Sans'" font-weight="400" font-family="DejaVu Sans" transform="translate(-.803 -1.156)"><tspan style="line-height:1.25" y="149.265" x="243.899" font-size="11.273">®</tspan></text></g><path d="M9.298 243.7s-.379 7.071.632 10.607c1.01 3.535 3.283 7.702 3.283 7.702s2.778-7.955 2.778-11.111c0-3.157.63-7.45.63-7.45l6.44.252s.38 6.945.758 9.344c.379 2.4 2.4 6.945 2.4 6.945s.504-4.42 2.777-10.48c2.273-6.061 3.03-7.071 5.177-6.819 2.147.253 5.682 2.778 5.682 2.778s-4.545 7.45-6.06 17.046c-1.516 9.597-2.02 10.48-2.02 13.764 0 3.283.252 5.682-3.158 5.682-3.409 0-5.808.379-7.197-6.566-1.389-6.945-2.652-8.208-2.652-8.208s-2.146 3.536-2.02 6.44c.126 2.904.758 8.208-1.136 8.081-1.894-.126-7.071 1.894-8.334-2.02-1.263-3.914-4.42-19.067-5.303-23.233-.884-4.167-3.662-10.102-.505-12.122 3.156-2.02 7.702-.632 7.828-.632zm42.174-.126l-.884 15.152h8.081l.884-14.773s4.041-.379 6.44 1.894c2.4 2.273 2.273 6.06 1.894 8.965-.379 2.904-4.546 27.4-4.546 27.4s-2.146-.126-4.166-2.02c-2.02-1.894-2.652-5.05-2.526-8.965.126-3.914 0-5.556 0-5.556l-6.566-.126-.126 16.794s-3.157.126-5.177-2.02c-2.02-2.147-3.914-5.43-3.41-11.239.506-5.808-1.136-21.339 3.031-23.99 4.167-2.652 7.197-1.263 7.071-1.516zm29.318-.074c-1.881.151-2.78 2.292-3.562 4.375-1.136 3.03-6.176 18.184-7.313 21.594-1.136 3.409-1.02 5.687 1 8.844 2.02 3.156 3.782 3.906 3.782 3.906l3.281-10.875 6.844-.5s-1.012 4.553 3.281 8.594c4.293 4.04 7.812 2.906 7.812 2.906s-4.927-21.594-5.937-27.781c-1.01-6.188-1.644-6.814-5.938-9.844-1.341-.947-2.394-1.288-3.25-1.219zm1.125 10.688l2.5 11.093h-5.78zm25.621 27.519l1.767-31.314s3.662.126 5.682-2.02c2.02-2.147 2.02-4.925 2.02-4.925s-8.46-.126-12.879 0c-4.42.126-6.06 0-8.207 2.02-2.147 2.02-1.39 6.945-1.39 6.945l5.936-1.263s-1.01 17.93-1.137 21.718c-.126 3.789.253 4.42 3.03 6.819 2.778 2.4 5.051 2.147 5.178 2.02zm17.536-37.988c-1.172-.054-2.212.467-2.875 2.125-1.515 3.788-5.706 17.672-6.969 22.344-1.263 4.671-3.027 6.815-.375 9.593 2.652 2.778 5.68 6.203 6.437 1.531.758-4.671 1.032-8.47 1.032-8.343l7.812.125s-.008 1.786.75 4.437c.758 2.652 1.652 2.635 5.188 4.781 3.535 2.147 5.417 2.398 4.281-2.906-1.136-5.303-5.301-22.337-6.438-26.125-1.136-3.788-1.882-4.298-4.28-5.687-1.35-.782-3.056-1.806-4.563-1.875zm1.656 9.062l3.031 11.875-6.187.125zm27.406-9.468c-4.798 0-8.206.774-9.469 4.562-1.262 3.788-.88 14.651-.25 24.5.632 9.849 3.54 9.341 5.813 9.594 2.273.252 3.531-2.031 3.531-2.031s3.027 2.282 6.563 2.156c3.535-.127 7.808-4.548 8.187-9.094.379-4.546-5.531-10.5-5.531-10.5-.126.253 4.394-4.79 2.5-10.219-1.894-5.43-6.546-8.969-11.344-8.969zm-2.406 5.437s6.81.884 7.062 6.188c.253 5.303-2.382 5.06-4.78 5.187-2.4.126-2.032-1.781-2.032-1.781zm1.031 15.875c1.103-.06 7.438 2.082 7.438 6.344 0 3.156.49 4.437-4.813 4.437s-2.781-10.75-2.781-10.75c.024-.023.083-.027.156-.031zm32.18 10.895c-2.778 0-4.925-4.167-5.051-17.299-.126-13.132 1.262-14.142-3.788-14.268-5.051-.126-4.799 2.273-4.799 6.44 0 4.166-.757 16.793 2.4 22.602 3.156 5.808 6.187 9.217 10.101 9.091 3.914-.126 8.081-3.788 10.228-9.849 2.146-6.06 3.157-10.606 2.904-17.551-.252-6.945 0-10.48-4.42-10.48-4.419 0-5.681.252-5.808 2.399-.126 2.146.884 1.515 1.39 3.661.504 2.147.63 18.183-.38 20.33-1.01 2.146 0 4.924-2.777 4.924zm22.539-32.145a8.079 8.079 0 00-1.063.063c-3.283.378-5.812 5.705-5.812 19.468 0 13.764.886 15.39 2.906 17.031 2.02 1.642 6.314 3.778 6.188 1-.127-2.777-.25-11.343-.25-11.343s1.378 3.527 4.156 7.062c2.778 3.536 5.167 5.814 7.187 5.688 2.02-.127 4.435-.395 1.657-4.688-2.778-4.293-6.438-12.25-6.438-12.25s6.935-5.403 7.188-8.812c.252-3.41.87-8.984-1.782-10.625-2.651-1.642-5.412-1.752-7.937-1.625-2.525.126-3.781.502-3.781.25 0 0-.02-1.183-2.219-1.219zm5.75 6.625c2.778 0 4.416 3.665 3.406 5.938-1.01 2.272-7.062 7.472-7.062 7.093-.127-.505-1.16-4.052-.782-8.219.38-4.166 1.66-4.812 4.438-4.812zm24.87 20.47s-1.894 1.262-1.768-2.526c.126-3.788 2.02-4.798 7.324-4.924 5.303-.127 5.934 1.515 5.177 4.419-.758 2.904-3.157 2.778-3.157 2.778s-1.01 5.808-3.41 8.586c-2.398 2.778-6.313 4.546-9.596 2.273-3.283-2.273-7.323-8.586-7.07-14.395.252-5.808 2.272-13.132 5.429-17.425 3.156-4.293 4.798-6.313 9.344-6.313 4.545 0 8.965 2.904 8.838 7.323-.126 4.42-.883 5.304-4.166 5.304-3.283 0-4.167-.505-3.788-3.03.378-2.526-.38-4.547-2.526-1.895-2.146 2.652-4.167 6.819-4.672 11.49-.505 4.673-1.515 12.501 1.01 12.249 2.526-.253 2.905-3.915 3.03-3.915zm23.36 2.525h8.207s.631 2.146-1.01 4.798c-1.642 2.652-.505 2.904-3.914 2.904-3.41 0-6.061-.631-7.071.379-1.01 1.01-4.925 1.515-6.188-.379-1.262-1.894-1.01-3.914.632-5.43 1.641-1.515 1.262-.126 1.262-3.409s.884-14.773.884-18.94c0-4.167-.884-9.218 6.187-9.47 7.072-.253 12.249.379 12.249.379s-.506 1.01-2.02 3.535c-1.516 2.526-.127 3.157-2.905 3.41-2.778.252-5.43.378-5.43.378l-.883 7.829 7.702.379s.379 3.03-.631 3.914c-1.01.884-7.45 1.642-7.45 1.642zm19.052-29.682c-1.263 0-1.74.382-2.75 2.78-1.01 2.4-2.657 11.496-2.657 18.188 0 6.693.882 11.879 3.281 14.656 2.4 2.778 4.406 1.875 4.406 1.875l.5-12.25c.165.786 3.235 4.688 6.313 8.594 3.283 4.167 6.947 4.558 9.094 5.063 2.146.505.394-2.037-1.5-4.563-1.894-2.525-.507-1.14-2.907-5.812-2.399-4.672-2.906-7.813-2.906-7.813s.877-.753 3.781-3.531c2.905-2.778 6.2-14.387-1.25-16.281-7.45-1.894-10.875 1-10.875 1s-1.268-1.906-2.53-1.906zm6.905 6.312c1.072 0 3.938 2.326 3.938 4.469 0 2.143-1.071 4.098-3.75 6.062-2.679 1.965-3.955 2.514-4.313 2.156 0 0-.348-5.883.188-8.562.536-2.679 2.866-4.125 3.937-4.125z" fill="#ffffff"/></svg>